<mxfile host="app.diagrams.net" modified="2024-02-07T10:24:36.749Z" agent="Mozilla/5.0 (X11; Linux x86_64; rv:122.0) Gecko/20100101 Firefox/122.0" etag="FC2d-0aeGLKtbuloLQYU" version="22.1.21" type="device">
  <diagram name="Page-1" id="KFCx-zrtSk8KoSc1lG5y">
    <mxGraphModel dx="1414" dy="683" grid="1" gridSize="10" guides="1" tooltips="1" connect="1" arrows="1" fold="1" page="1" pageScale="1" pageWidth="850" pageHeight="1100" math="0" shadow="0">
      <root>
        <mxCell id="0" />
        <mxCell id="1" parent="0" />
        <mxCell id="1OJFnhTLq1hZbmYV2B88-1" value="Host" style="swimlane;whiteSpace=wrap;html=1;" vertex="1" parent="1">
          <mxGeometry x="10" y="10" width="830" height="660" as="geometry" />
        </mxCell>
        <mxCell id="1OJFnhTLq1hZbmYV2B88-21" style="edgeStyle=orthogonalEdgeStyle;rounded=0;orthogonalLoop=1;jettySize=auto;html=1;exitX=1;exitY=0.5;exitDx=0;exitDy=0;entryX=0;entryY=0.5;entryDx=0;entryDy=0;" edge="1" parent="1OJFnhTLq1hZbmYV2B88-1" source="1OJFnhTLq1hZbmYV2B88-2" target="1OJFnhTLq1hZbmYV2B88-20">
          <mxGeometry relative="1" as="geometry" />
        </mxCell>
        <mxCell id="1OJFnhTLq1hZbmYV2B88-22" value="TCP" style="edgeLabel;html=1;align=center;verticalAlign=middle;resizable=0;points=[];" vertex="1" connectable="0" parent="1OJFnhTLq1hZbmYV2B88-21">
          <mxGeometry x="-0.0182" y="-2" relative="1" as="geometry">
            <mxPoint as="offset" />
          </mxGeometry>
        </mxCell>
        <mxCell id="1OJFnhTLq1hZbmYV2B88-2" value="Container - CAN simulator " style="swimlane;whiteSpace=wrap;html=1;" vertex="1" parent="1OJFnhTLq1hZbmYV2B88-1">
          <mxGeometry x="90" y="160" width="200" height="220" as="geometry" />
        </mxCell>
        <mxCell id="1OJFnhTLq1hZbmYV2B88-9" value="vxcan" style="shape=process;whiteSpace=wrap;html=1;backgroundOutline=1;rotation=90;" vertex="1" parent="1OJFnhTLq1hZbmYV2B88-2">
          <mxGeometry x="10" y="200" width="80" height="20" as="geometry" />
        </mxCell>
        <mxCell id="1OJFnhTLq1hZbmYV2B88-18" value="vxcan" style="shape=process;whiteSpace=wrap;html=1;backgroundOutline=1;rotation=90;" vertex="1" parent="1OJFnhTLq1hZbmYV2B88-2">
          <mxGeometry x="70" y="200" width="80" height="20" as="geometry" />
        </mxCell>
        <mxCell id="1OJFnhTLq1hZbmYV2B88-3" value="" style="shape=actor;whiteSpace=wrap;html=1;" vertex="1" parent="1OJFnhTLq1hZbmYV2B88-1">
          <mxGeometry x="30" y="520" width="40" height="60" as="geometry" />
        </mxCell>
        <mxCell id="1OJFnhTLq1hZbmYV2B88-4" value="CAN tools" style="swimlane;fontStyle=0;childLayout=stackLayout;horizontal=1;startSize=30;horizontalStack=0;resizeParent=1;resizeParentMax=0;resizeLast=0;collapsible=1;marginBottom=0;whiteSpace=wrap;html=1;swimlaneLine=1;strokeColor=none;" vertex="1" parent="1OJFnhTLq1hZbmYV2B88-1">
          <mxGeometry x="110" y="480" width="140" height="120" as="geometry" />
        </mxCell>
        <mxCell id="1OJFnhTLq1hZbmYV2B88-5" value="candump&lt;span style=&quot;white-space: pre;&quot;&gt;&#x9;&lt;/span&gt;&lt;span style=&quot;white-space: pre;&quot;&gt;&#x9;&lt;/span&gt;" style="text;strokeColor=default;fillColor=none;align=left;verticalAlign=middle;spacingLeft=4;spacingRight=4;overflow=hidden;points=[[0,0.5],[1,0.5]];portConstraint=eastwest;rotatable=0;whiteSpace=wrap;html=1;rounded=1;" vertex="1" parent="1OJFnhTLq1hZbmYV2B88-4">
          <mxGeometry y="30" width="140" height="30" as="geometry" />
        </mxCell>
        <mxCell id="1OJFnhTLq1hZbmYV2B88-6" value="cansniff" style="text;strokeColor=default;fillColor=none;align=left;verticalAlign=middle;spacingLeft=4;spacingRight=4;overflow=hidden;points=[[0,0.5],[1,0.5]];portConstraint=eastwest;rotatable=0;whiteSpace=wrap;html=1;rounded=1;" vertex="1" parent="1OJFnhTLq1hZbmYV2B88-4">
          <mxGeometry y="60" width="140" height="30" as="geometry" />
        </mxCell>
        <mxCell id="1OJFnhTLq1hZbmYV2B88-7" value="caringcaribou" style="text;strokeColor=default;fillColor=none;align=left;verticalAlign=middle;spacingLeft=4;spacingRight=4;overflow=hidden;points=[[0,0.5],[1,0.5]];portConstraint=eastwest;rotatable=0;whiteSpace=wrap;html=1;glass=0;rounded=1;" vertex="1" parent="1OJFnhTLq1hZbmYV2B88-4">
          <mxGeometry y="90" width="140" height="30" as="geometry" />
        </mxCell>
        <mxCell id="1OJFnhTLq1hZbmYV2B88-12" style="edgeStyle=orthogonalEdgeStyle;rounded=0;orthogonalLoop=1;jettySize=auto;html=1;exitX=0;exitY=0.5;exitDx=0;exitDy=0;entryX=1;entryY=0.5;entryDx=0;entryDy=0;startArrow=classic;startFill=1;" edge="1" parent="1OJFnhTLq1hZbmYV2B88-1" source="1OJFnhTLq1hZbmYV2B88-8" target="1OJFnhTLq1hZbmYV2B88-2">
          <mxGeometry relative="1" as="geometry">
            <Array as="points">
              <mxPoint x="400" y="170" />
              <mxPoint x="400" y="270" />
            </Array>
          </mxGeometry>
        </mxCell>
        <mxCell id="1OJFnhTLq1hZbmYV2B88-16" value="TCP" style="edgeLabel;html=1;align=center;verticalAlign=middle;resizable=0;points=[];" vertex="1" connectable="0" parent="1OJFnhTLq1hZbmYV2B88-12">
          <mxGeometry y="3" relative="1" as="geometry">
            <mxPoint y="-3" as="offset" />
          </mxGeometry>
        </mxCell>
        <mxCell id="1OJFnhTLq1hZbmYV2B88-8" value="Container - GUI" style="swimlane;whiteSpace=wrap;html=1;" vertex="1" parent="1OJFnhTLq1hZbmYV2B88-1">
          <mxGeometry x="510" y="70" width="200" height="200" as="geometry" />
        </mxCell>
        <mxCell id="1OJFnhTLq1hZbmYV2B88-11" style="edgeStyle=orthogonalEdgeStyle;rounded=0;orthogonalLoop=1;jettySize=auto;html=1;exitX=1;exitY=0.5;exitDx=0;exitDy=0;startArrow=classic;startFill=1;" edge="1" parent="1OJFnhTLq1hZbmYV2B88-1" source="1OJFnhTLq1hZbmYV2B88-9" target="1OJFnhTLq1hZbmYV2B88-4">
          <mxGeometry relative="1" as="geometry" />
        </mxCell>
        <mxCell id="1OJFnhTLq1hZbmYV2B88-20" value="Container - Controls" style="swimlane;whiteSpace=wrap;html=1;" vertex="1" parent="1OJFnhTLq1hZbmYV2B88-1">
          <mxGeometry x="510" y="280" width="200" height="200" as="geometry" />
        </mxCell>
        <mxCell id="1OJFnhTLq1hZbmYV2B88-25" value="&lt;div&gt;can0&lt;/div&gt;" style="shape=process;whiteSpace=wrap;html=1;backgroundOutline=1;rotation=90;" vertex="1" parent="1OJFnhTLq1hZbmYV2B88-1">
          <mxGeometry x="492.4" y="640" width="80" height="20" as="geometry" />
        </mxCell>
        <mxCell id="1OJFnhTLq1hZbmYV2B88-23" value="" style="endArrow=classic;startArrow=classic;html=1;rounded=0;entryX=1;entryY=0.5;entryDx=0;entryDy=0;exitX=0;exitY=0.5;exitDx=0;exitDy=0;" edge="1" parent="1OJFnhTLq1hZbmYV2B88-1" source="1OJFnhTLq1hZbmYV2B88-25" target="1OJFnhTLq1hZbmYV2B88-18">
          <mxGeometry width="50" height="50" relative="1" as="geometry">
            <mxPoint x="530" y="740" as="sourcePoint" />
            <mxPoint x="360" y="610" as="targetPoint" />
          </mxGeometry>
        </mxCell>
        <mxCell id="1OJFnhTLq1hZbmYV2B88-19" value="ECU" style="pointerEvents=1;shadow=0;dashed=0;html=1;strokeColor=none;fillColor=#4495D1;labelPosition=center;verticalLabelPosition=bottom;verticalAlign=top;align=center;outlineConnect=0;shape=mxgraph.veeam.cpu;" vertex="1" parent="1">
          <mxGeometry x="520" y="750" width="44.8" height="44.8" as="geometry" />
        </mxCell>
        <mxCell id="1OJFnhTLq1hZbmYV2B88-26" style="edgeStyle=orthogonalEdgeStyle;rounded=0;orthogonalLoop=1;jettySize=auto;html=1;exitX=1;exitY=0.5;exitDx=0;exitDy=0;" edge="1" parent="1" source="1OJFnhTLq1hZbmYV2B88-25" target="1OJFnhTLq1hZbmYV2B88-19">
          <mxGeometry relative="1" as="geometry" />
        </mxCell>
      </root>
    </mxGraphModel>
  </diagram>
</mxfile>
